<svg width="30" height="34" viewBox="0 0 30 34" fill="none" xmlns="http://www.w3.org/2000/svg">
<g filter="url(#filter0_d_1_1061)">
<path d="M20.1158 9.6427V7.50504C20.1158 6.83892 19.9846 6.17932 19.7297 5.56391C19.4748 4.94849 19.1012 4.38931 18.6301 3.9183C18.1591 3.44728 17.6 3.07365 16.9845 2.81873C16.3691 2.56382 15.7095 2.43262 15.0434 2.43262C14.3773 2.43262 13.7177 2.56382 13.1023 2.81873C12.4869 3.07365 11.9277 3.44728 11.4567 3.9183C10.9856 4.38931 10.612 4.94849 10.3571 5.56391C10.1022 6.17932 9.97098 6.83892 9.97098 7.50504V12.5775C9.97098 12.7696 10.0473 12.954 10.1832 13.0899C10.3191 13.2257 10.5034 13.3021 10.6956 13.3021C10.8878 13.3021 11.0721 13.2257 11.208 13.0899C11.3439 12.954 11.4202 12.7696 11.4202 12.5775V11.092H17.2173V9.6427H11.4202V7.50504C11.4202 6.54412 11.802 5.62255 12.4814 4.94308C13.1609 4.26361 14.0825 3.88188 15.0434 3.88188C16.0043 3.88188 16.9259 4.26361 17.6054 4.94308C18.2848 5.62255 18.6666 6.54412 18.6666 7.50504V12.5412C18.6666 12.7334 18.7429 12.9177 18.8788 13.0536C19.0147 13.1895 19.199 13.2659 19.3912 13.2659C19.5834 13.2659 19.7677 13.1895 19.9036 13.0536C20.0395 12.9177 20.1158 12.7334 20.1158 12.5412V11.092H23.739V24.1353H6.34782V11.092H8.52172V9.6427H4.89856V24.2006C4.89856 24.5676 5.04438 24.9197 5.30394 25.1792C5.5635 25.4388 5.91553 25.5846 6.28261 25.5846H23.8042C24.1713 25.5846 24.5233 25.4388 24.7829 25.1792C25.0424 24.9197 25.1882 24.5676 25.1882 24.2006V9.6427H20.1158Z" fill="#2B2E34"/>
<path fill-rule="evenodd" clip-rule="evenodd" d="M8.52168 9.6426V11.0919H6.34779V24.1352H23.739V11.0919H20.1158V12.5411C20.1158 12.7333 20.0394 12.9176 19.9036 13.0535C19.7677 13.1894 19.5833 13.2658 19.3912 13.2658C19.199 13.2658 19.0147 13.1894 18.8788 13.0535C18.7429 12.9176 18.6665 12.7333 18.6665 12.5411V7.50494C18.6665 6.54402 18.2848 5.62246 17.6053 4.94298C16.9259 4.26351 16.0043 3.88178 15.0434 3.88178C14.0824 3.88178 13.1609 4.26351 12.4814 4.94298C11.8019 5.62246 11.4202 6.54402 11.4202 7.50494V9.6426H17.2173V11.0919H11.4202V12.5774C11.4202 12.7695 11.3439 12.9539 11.208 13.0898C11.0721 13.2256 10.8878 13.302 10.6956 13.302C10.5034 13.302 10.3191 13.2256 10.1832 13.0898C10.0473 12.9539 9.97095 12.7695 9.97095 12.5774V7.50494C9.97095 6.83882 10.1021 6.17922 10.3571 5.56381C10.612 4.94839 10.9856 4.38922 11.4566 3.9182C11.9276 3.44718 12.4868 3.07355 13.1022 2.81863C13.7177 2.56372 14.3772 2.43252 15.0434 2.43252C15.7095 2.43252 16.3691 2.56372 16.9845 2.81863C17.5999 3.07355 18.1591 3.44718 18.6301 3.9182C19.1011 4.38922 19.4748 4.94839 19.7297 5.56381C19.9846 6.17922 20.1158 6.83882 20.1158 7.50494V9.6426H25.1882V24.2005C25.1882 24.5675 25.0424 24.9196 24.7828 25.1791C24.5233 25.4387 24.1712 25.5845 23.8042 25.5845H6.28257C5.9155 25.5845 5.56346 25.4387 5.3039 25.1791C5.04434 24.9196 4.89852 24.5675 4.89852 24.2005V9.6426H8.52168ZM20.2158 9.5426H25.2882V24.2005C25.2882 24.594 25.1319 24.9715 24.8535 25.2498C24.5752 25.5281 24.1978 25.6845 23.8042 25.6845H6.28257C5.88898 25.6845 5.5115 25.5281 5.23319 25.2498C4.95488 24.9715 4.79852 24.594 4.79852 24.2005V9.5426H8.62168V11.1919H6.44779V24.0352H23.639V11.1919H20.2158V12.5411C20.2158 12.7598 20.1289 12.9696 19.9743 13.1242C19.8196 13.2789 19.6099 13.3658 19.3912 13.3658C19.1725 13.3658 18.9627 13.2789 18.8081 13.1242C18.6534 12.9696 18.5665 12.7598 18.5665 12.5411V7.50494C18.5665 6.57054 18.1953 5.67441 17.5346 5.01369C16.8739 4.35297 15.9778 3.98178 15.0434 3.98178C14.109 3.98178 13.2128 4.35297 12.5521 5.01369C11.8914 5.67441 11.5202 6.57054 11.5202 7.50494V9.5426H17.3173V11.1919H11.5202V12.5774C11.5202 12.7961 11.4333 13.0058 11.2787 13.1605C11.124 13.3151 10.9143 13.402 10.6956 13.402C10.4769 13.402 10.2671 13.3151 10.1125 13.1605C9.95783 13.0058 9.87095 12.7961 9.87095 12.5774V7.50494C9.87095 6.82569 10.0047 6.15309 10.2647 5.52554C10.5246 4.89799 10.9056 4.32779 11.3859 3.84749C11.8662 3.36718 12.4364 2.98619 13.064 2.72625C13.6915 2.46631 14.3641 2.33252 15.0434 2.33252C15.7226 2.33252 16.3952 2.46631 17.0228 2.72625C17.6503 2.98619 18.2205 3.36718 18.7008 3.84749C19.1811 4.32779 19.5621 4.89799 19.8221 5.52554C20.082 6.15309 20.2158 6.82569 20.2158 7.50494V9.5426Z" fill="#2B2E34"/>
</g>
<defs>
<filter id="filter0_d_1_1061" x="-2" y="0.947021" width="34.0867" height="34.0867" filterUnits="userSpaceOnUse" color-interpolation-filters="sRGB">
<feFlood flood-opacity="0" result="BackgroundImageFix"/>
<feColorMatrix in="SourceAlpha" type="matrix" values="0 0 0 0 0 0 0 0 0 0 0 0 0 0 0 0 0 0 127 0" result="hardAlpha"/>
<feOffset dy="4"/>
<feGaussianBlur stdDeviation="2"/>
<feComposite in2="hardAlpha" operator="out"/>
<feColorMatrix type="matrix" values="0 0 0 0 0 0 0 0 0 0 0 0 0 0 0 0 0 0 0.25 0"/>
<feBlend mode="normal" in2="BackgroundImageFix" result="effect1_dropShadow_1_1061"/>
<feBlend mode="normal" in="SourceGraphic" in2="effect1_dropShadow_1_1061" result="shape"/>
</filter>
</defs>
</svg>
